General
Complete name                            : Thor.(2011).DVDRip.x264.Eng.AAC.5.1.AMX.mp4
Format                                   : MPEG-4
Format profile                           : Base Media
Codec ID                                 : isom
File size                                : 1.13 GiB
Duration                                 : 1h 50mn
Overall bit rate mode                    : Variable
Overall bit rate                         : 1 459 Kbps

Video
ID                                       : 1
Format                                   : AVC
Format/Info                              : Advanced Video Codec
Format profile                           : High@L3.0
Format settings, CABAC                   : Yes
Format settings, ReFrames                : 8 frames
Codec ID                                 : avc1
Codec ID/Info                            : Advanced Video Coding
Duration                                 : 1h 50mn
Bit rate                                 : 1 127 Kbps
Maximum bit rate                         : 9 474 Kbps
Width                                    : 720 pixels
Height                                   : 304 pixels
Display aspect ratio                     : 2.35:1
Frame rate mode                          : Constant
Frame rate                               : 25.000 fps
Color space                              : YUV
Chroma subsampling                       : 4:2:0
Bit depth                                : 8 bits
Scan type                                : Progressive
Bits/(Pixel*Frame)                       : 0.206
Stream size                              : 890 MiB (77%)
Writing library                          : x264 core 125 r2200 999b753

Audio
ID                                       : 2
Format                                   : AAC
Format/Info                              : Advanced Audio Codec
Format profile                           : LC
Codec ID                                 : 40
Duration                                 : 1h 50mn
Bit rate mode                            : Variable
Bit rate                                 : 328 Kbps
Maximum bit rate                         : 387 Kbps
Channel(s)                               : 6 channels
Channel positions                        : Front: L C R, Side: L R, LFE
Sampling rate                            : 48.0 KHz
Compression mode                         : Lossy
Stream size                              : 259 MiB (22%)
